<?xml version="1.0" encoding="utf-8"?>
<!-- Uploaded to: SVG Repo, www.svgrepo.com, Generator: SVG Repo Mixer Tools -->
<svg width="800px" height="800px" viewBox="0 -20.27 285.251 285.251" xmlns="http://www.w3.org/2000/svg"><defs><style>.a{fill:#ffffff;}.b{fill:#d9d9d9;}.c{fill:#7abee6;}.d{fill:#211715;}</style></defs><path class="a" d="M83.02,173.48a3.989,3.989,0,0,1-3.994,0L18.87,138.743l-.277.081V199.45a1.986,1.986,0,0,0,.993,1.728l71.6,41.339a1.971,1.971,0,0,0,1.985,0L275.5,137.252a1.987,1.987,0,0,0,.993-1.728v-72.7l-3.725,1.1Z"/><path class="a" d="M205.85,2.439l76.27,43.522a2,2,0,0,1,1.009,1.739c0,3.711,0,7.322,0,9.1a1.976,1.976,0,0,1-.992,1.714L83.02,173.48a3.989,3.989,0,0,1-3.994,0L3.016,129.588a2,2,0,0,1-1-1.73c0-1.8,0-5.4,0-8.862a2,2,0,0,1,1-1.732L201.867,2.449A4,4,0,0,1,205.85,2.439Z"/><path class="b" d="M152.084,108.676l-64,36.951a1,1,0,0,1-1,0L43.447,120.433a1,1,0,0,1,0-1.732l64-36.951a1,1,0,0,1,1,0l43.636,25.194A1,1,0,0,1,152.084,108.676Z"/><path class="c" d="M247.246,53.735l-57.5,33.2a5,5,0,0,1-5,0L147.6,65.5a4,4,0,0,1,0-6.928l57.5-33.2a5,5,0,0,1,5,0l37.14,21.443A4,4,0,0,1,247.246,53.735Z"/><path class="d" d="M16.593,138.824v59.5c0,.371-.019.748,0,1.119.111,2.173,1.547,3.206,3.238,4.182l7.718,4.456,24.782,14.308,25.81,14.9,8.955,5.17c.91.525,1.812,1.066,2.731,1.576a4.638,4.638,0,0,0,4.967-.149l9.576-5.528,16.565-9.564L142.7,216.231l24.867-14.356,26.157-15.1,25.665-14.818,23.032-13.3,18.624-10.753,12.358-7.135a20.8,20.8,0,0,0,3.8-2.306c1.539-1.432,1.29-3.45,1.29-5.332V62.824c0-2.573-4-2.578-4,0v70.052c0,.662.262,2.257-.126,2.72a5.848,5.848,0,0,1-1.422.821l-1.918,1.108-5.337,3.081-15.737,9.086L229,161.788l-24.322,14.043-25.849,14.923L153.3,205.494l-23.366,13.49L110.577,230.16l-13.5,7.8-3.981,2.3c-.623.359-.766.609-1.362.265l-2.741-1.583-21-12.121-26.8-15.47q-9.55-5.515-19.1-11.029c-.385-.222-1.345-.6-1.5-.937a4.7,4.7,0,0,1,0-1.464V138.824c0-2.573-4-2.578-4,0Z"/><path class="d" d="M90.182,169.908v72.877c0,2.574,4,2.578,4,0V169.908c0-2.574-4-2.578-4,0Z"/><path class="d" d="M198.49,50.575,174.265,64.562l-3.4,1.966c-2.229,1.287-.217,4.745,2.019,3.454l24.155-13.947,3.475-2.007c2.229-1.286.217-4.744-2.019-3.453Z"/><path class="d" d="M205.942,34.241V45.074a2,2,0,1,0,4,0V34.241a2,2,0,1,0-4,0Z"/><path class="d" d="M204.841,4.166l20.136,11.49,37.186,21.22,13.915,7.941,3.888,2.218c1.418.81,1.163.551,1.163,2.594v4.705c0,.6.243,2.072-.045,2.476-.173.243-.776.448-1.035.6l-3.016,1.741-9.543,5.51L237.157,82.173,197.629,105l-42.138,24.33-38.086,21.99L90.033,167.121c-2.528,1.459-5.034,2.967-7.588,4.381a2.789,2.789,0,0,1-3.163-.188l-3.457-2-31.487-18.18L10.755,131.747l-4.68-2.7c-.5-.286-1.654-.679-2-1.155-.145-.2.157.479-.059-.315a5.741,5.741,0,0,1,0-1.374q0-1.312,0-2.625v-2.5c0-.458-.257-1.735,0-2.077-.013.017.037-.017.042-.024.132-.2.657-.379.858-.495l14.066-8.121L46.2,94.638,81.474,74.273,119.807,52.14l36.032-20.8L184.581,14.74l16.372-9.453c1.155-.667,2.516-1.8,3.888-1.121,2.3,1.139,4.328-2.31,2.018-3.454C203.875-.766,201.6.3,199.116,1.728l-6.252,3.61L169.513,18.82,135.937,38.207l-38.4,22.17-37.751,21.8L27.7,100.7,7.01,112.648l-4.5,2.6a4.932,4.932,0,0,0-1.855,1.6c-.813,1.276-.64,2.782-.64,4.228V126c0,2.133.017,4.046,2.012,5.325,2.12,1.358,4.385,2.531,6.564,3.79l15.019,8.671,37.413,21.6L74.27,173.04l3.216,1.857a6.546,6.546,0,0,0,6.787.169c6.569-3.651,13.026-7.521,19.535-11.279l34.223-19.76,41.532-23.98,42.224-24.38L257.6,74.99l22.377-12.92c.9-.521,1.808-1.031,2.7-1.562a4.43,4.43,0,0,0,2.448-3.849,80.472,80.472,0,0,0-.015-9.136c-.23-3.165-4.308-4.615-6.7-5.979L245.848,22.96,212.419,3.885,206.859.712C204.62-.566,202.6,2.889,204.841,4.166Z"/><path class="d" d="M246.237,52.008,231.007,60.8,202.89,77.038l-10.653,6.151-3.019,1.743a4.829,4.829,0,0,1-1.784.826,4.733,4.733,0,0,1-2.513-1.029l-4.186-2.417-13.408-7.741-13.192-7.616-4.229-2.442a5.745,5.745,0,0,1-1.962-1.36c-1.5-2.226,1.77-3.494,3.234-4.34l9.585-5.534,27.956-16.142c5.882-3.4,11.685-7.038,17.69-10.215a2.373,2.373,0,0,1,2.458.037c.989.56,1.968,1.136,2.952,1.7l12.047,6.956c7.379,4.26,14.8,8.452,22.139,12.781,1.4.826,1.754,2.652.232,3.608-2.175,1.366-.169,4.829,2.019,3.454a6.058,6.058,0,0,0,.513-10.032,23.5,23.5,0,0,0-2.166-1.3L235.3,37.6l-24.14-13.937a6.482,6.482,0,0,0-6.561-.311c-.445.235-.875.5-1.311.757l-8.659,5-28.5,16.457c-6.408,3.7-12.839,7.363-19.225,11.1a6.026,6.026,0,0,0,.1,10.792c3.045,1.776,6.107,3.525,9.16,5.288l26.123,15.082c.648.374,1.287.774,1.949,1.125a6.384,6.384,0,0,0,6.4-.216c2.306-1.312,4.6-2.654,6.893-3.981L225.17,68.793,247.081,56.14l1.175-.678C250.484,54.175,248.472,50.717,246.237,52.008Z"/><path class="d" d="M151.074,106.949l-16.209,9.358L104.44,133.873l-11.946,6.9-3.736,2.157a6.473,6.473,0,0,0-1.644.949c.23-.291,1.32.345.761-.1a8.478,8.478,0,0,0-1.06-.611l-4.18-2.414-13.881-8.014-15.035-8.681c-2.935-1.694-5.831-3.608-8.866-5.118a1.723,1.723,0,0,0-.3-.171c-.026-.006-.053-.044-.079-.045.884.052.309,1.713-.022,1.708.095,0,.256-.159.341-.2a26.807,26.807,0,0,0,2.456-1.418l10.182-5.878L87.5,95.58l20.422-11.791c.053-.03.5-.231.506-.292-.038.434-1.35-.42-.732.126a18.262,18.262,0,0,0,2.92,1.686l12.562,7.252,26.333,15.2c.388.224.771.477,1.172.676a1.531,1.531,0,0,0,.307.178c.567.116-.916-.893-.315-1.358a2.01,2.01,0,0,0,0,2.829,2.052,2.052,0,0,0,2.828,0,3.023,3.023,0,0,0-.427-4.886c-.221-.147-.464-.268-.694-.4l-3.739-2.159-13.919-8.036c-8.285-4.783-16.511-9.692-24.865-14.356a3.516,3.516,0,0,0-3.577-.135c-.74.389-1.454.839-2.178,1.257L93.9,87.262,62.992,105.107C56.251,109,49.385,112.734,42.744,116.8c-2.055,1.258-2.454,3.931-.284,5.376.7.469,1.478.854,2.209,1.276l12.16,7.021,27.543,15.9a13.554,13.554,0,0,0,2.179,1.184c1.371.482,2.385-.111,3.491-.75l8.41-4.855,30.146-17.4,23.269-13.434,1.226-.709C155.322,109.116,153.31,105.658,151.074,106.949Z"/><path class="d" d="M61.236,120.883l16.13-9.313L102.94,96.805l5.882-3.4c2.228-1.286.217-4.744-2.019-3.454l-16.13,9.313L65.1,114.033l-5.882,3.4c-2.228,1.287-.216,4.745,2.019,3.454Z"/><path class="d" d="M127.16,108.514c-.086,3.076-4.615,4.626-7.23,5.156-4.078.826-8.95.41-12.5-1.911a4.584,4.584,0,0,1-2.279-3.039,3.8,3.8,0,0,1,1.478-2.843c3.007-2.672,7.82-3.136,11.64-2.77,2.944.283,8.79,1.813,8.891,5.407.072,2.569,4.073,2.58,4,0-.145-5.173-5.51-8.022-9.974-8.973-5.363-1.142-11.875-.637-16.406,2.722a8.286,8.286,0,0,0-3.521,5.226,7.172,7.172,0,0,0,2.129,6.094c3.849,3.99,10.455,4.908,15.7,4.246,5.037-.635,11.907-3.3,12.076-9.315C131.232,105.94,127.232,105.942,127.16,108.514Z"/><path class="d" d="M272.679,50.575l-5.166,2.982-13.988,8.076L232.764,73.62,207.531,88.188,179.9,104.142l-28,16.167-26.011,15.017-22.064,12.738-15.8,9.125c-2.5,1.442-5.032,2.836-7.5,4.33-.108.065-.218.125-.327.188-2.229,1.287-.217,4.745,2.019,3.454l5.165-2.982,13.988-8.076,20.762-11.987,25.233-14.568,27.633-15.954,28-16.167L229,80.41l22.064-12.738,15.8-9.125c2.5-1.442,5.032-2.836,7.5-4.33.108-.065.218-.126.327-.189,2.229-1.286.217-4.744-2.019-3.453Z"/><path class="d" d="M81.482,161.707,58.264,148.3,21.233,126.923,12.7,122c-2.233-1.289-4.25,2.166-2.019,3.454L33.9,138.856l37.031,21.38,8.531,4.925c2.234,1.29,4.25-2.166,2.019-3.454Z"/><path class="d" d="M99.8,124.309c-.087,3.075-4.616,4.626-7.231,5.155-4.077.826-8.949.411-12.5-1.911a4.586,4.586,0,0,1-2.28-3.039,3.806,3.806,0,0,1,1.479-2.843c3.006-2.672,7.819-3.136,11.639-2.77,2.945.283,8.791,1.813,8.892,5.408.072,2.568,4.072,2.579,4,0-.145-5.173-5.511-8.023-9.975-8.974-5.363-1.142-11.874-.636-16.406,2.722a8.285,8.285,0,0,0-3.52,5.227,7.17,7.17,0,0,0,2.128,6.093c3.849,3.99,10.456,4.908,15.7,4.247,5.037-.636,11.908-3.3,12.077-9.315C103.876,121.734,99.876,121.736,99.8,124.309Z"/><path class="a" d="M181.043,30.888V6.229c0-2.092-2.938-3.789-6.563-3.789s-6.563,1.7-6.563,3.789V30.888c0,2.093,2.938,3.79,6.563,3.79S181.043,32.981,181.043,30.888Z"/><path class="d" d="M179.043,6.229V29.987a5.634,5.634,0,0,1,0,.9,1.743,1.743,0,0,1-.628.772,6,6,0,0,1-2.468.911,7.525,7.525,0,0,1-5.364-.892c-.544-.389-.644-.554-.666-1.025-.189-4.012,0-8.078,0-12.094V6.229c0-2.573-4-2.578-4,0,0,8.149-.232,16.331,0,24.475.1,3.564,3.513,5.374,6.681,5.822,3.772.534,10.059-.627,10.432-5.4.091-1.171.013-2.373.013-3.546V6.229c0-2.573-4-2.578-4,0Z"/><path class="d" d="M169.917,6.229c.011-.375-.042.132-.038.145s.041-.252.059-.253L169.979,6l-.1.234c.045-.077.082-.16.128-.237s.1-.154.154-.23c-.051.073-.286.29-.037.073a2.836,2.836,0,0,0,.214-.21c.242-.264-.172.087.022-.034s.369-.248.565-.358c.1-.057.206-.112.311-.163.047-.024.389-.174.175-.086-.2.082.092-.031.109-.037.121-.041.242-.085.364-.123a9.63,9.63,0,0,1,.973-.248c.136-.028.274-.052.411-.074-.093.015-.319.029.105-.01.294-.027.587-.046.882-.052.262,0,.524,0,.786.012.147.007.293.017.439.03.094.009.486.063.214.02a9.512,9.512,0,0,1,1.568.382c.12.041.239.084.357.13-.081-.031-.309-.158.027.016.232.12.462.236.683.377.092.059.18.127.272.184.233.145-.191-.228-.035-.017.039.051.489.5.3.279s.108.189.154.257c.182.272-.023-.041-.04-.115.016.072.126.3.1.377.008-.02-.061-.514-.037-.145.02.312.041-.137.037-.144.088.143-.327.656,0,.142-.083.129-.171.277-.242.411-.116.219.254-.217.046-.071a1.883,1.883,0,0,0-.263.265c-.225.246-.028.04.043-.014-.086.065-.177.127-.267.187a6.357,6.357,0,0,1-.594.343c-.106.054-.215.106-.324.154.082-.036.331-.118-.04.007-.278.095-.556.185-.841.258a5.426,5.426,0,0,1-1.339.224,12.28,12.28,0,0,1-1.889-.026c-.039,0-.393-.055-.105-.01-.172-.027-.342-.06-.512-.095-.294-.063-.585-.137-.872-.227-.122-.039-.242-.085-.364-.124-.347-.11.066.044-.122-.045A7,7,0,0,1,170.7,7.1c-.094-.059-.184-.122-.277-.182-.4-.258.219.255-.088-.081-.064-.069-.145-.151-.214-.211-.262-.229.077.194,0,.017a1.925,1.925,0,0,0-.114-.174c-.137-.228-.066-.35-.027,0-.009-.079-.058-.172-.074-.249-.08-.392.024.45.012.017a2,2,0,0,0-4,0c.089,3.043,2.979,4.867,5.674,5.466,2.956.658,6.571.406,9.094-1.423a5.26,5.26,0,0,0,2.271-3.252,4.616,4.616,0,0,0-1.291-4.011C179.578.785,175.946.181,173.051.531c-3.129.378-7.027,2.026-7.134,5.7a2.016,2.016,0,0,0,2,2A2.039,2.039,0,0,0,169.917,6.229Z"/><path class="a" d="M189.644,18.185v-.5a2.113,2.113,0,0,0-1.054-1.829l-6-3.465a2.107,2.107,0,0,0-2.11,0l-2.45,1.415a2.112,2.112,0,0,0-1.057,1.829v.5a2.111,2.111,0,0,0,1.057,1.829l5.994,3.463a2.115,2.115,0,0,0,2.113,0l2.446-1.411A2.114,2.114,0,0,0,189.644,18.185Z"/><path class="d" d="M191.644,18.185a4.786,4.786,0,0,0-.6-2.64,6.039,6.039,0,0,0-2.294-1.907l-4.5-2.6a5.03,5.03,0,0,0-3-.9,5.135,5.135,0,0,0-2.151.758,17.462,17.462,0,0,0-2.776,1.72,4.582,4.582,0,0,0,.2,6.711,17.176,17.176,0,0,0,1.934,1.194c1.567.905,3.114,1.957,4.75,2.732a4.273,4.273,0,0,0,3.965-.1c.427-.23.842-.485,1.262-.728.388-.224.787-.435,1.167-.673a4.282,4.282,0,0,0,2.051-3.559,2.016,2.016,0,0,0-2-2,2.042,2.042,0,0,0-2,2l-.009.188q.036-.339-.049.007l.047-.147c-.124.2-.13.2-.02.029.237-.236-.036.025-.13.081-.337.2-.681.393-1.022.589-.375.217-.76.423-1.129.652-.063.039-.13.079-.2.113.126-.064.2.01-.091.026.2-.018.183-.023-.061-.015q.3.045-.056-.041c.19.152-.063-.066-.138-.109l-.9-.523-2.392-1.382-2.1-1.215c-.116-.066-.232-.132-.347-.2-.391-.232-.066-.056-.037-.027l.078.124q-.166-.306-.051-.006l-.055-.175c.009.23.009.224,0-.019v-.5c.011-.243.011-.249,0-.019.1-.412-.173.136.106-.181-.084.1-.385.3-.042.1l.144-.083c.394-.233.793-.458,1.19-.687.32-.185.672-.348.973-.562.063-.044.208-.193.036-.05l.192-.056c-.2.017-.184.021.06.014-.326-.156.257.167-.054.007,1.414.729,2.772,1.6,4.15,2.4.615.356,1.236.7,1.847,1.068.344.2.04,0-.043-.1q.166.306.05.006.084.347.048.006a4.619,4.619,0,0,1,.009.686,2,2,0,1,0,4,0Z"/></svg>