<?xml version="1.0" encoding="iso-8859-1"?>
<!-- Uploaded to: SVG Repo, www.svgrepo.com, Generator: SVG Repo Mixer Tools -->
<svg height="800px" width="800px" version="1.1" id="Capa_1" xmlns="http://www.w3.org/2000/svg" xmlns:xlink="http://www.w3.org/1999/xlink" 
	 viewBox="0 0 502.664 502.664" xml:space="preserve">
<g>
	<g>
		<path style="fill:#010002;" d="M235.704,0c0,16.976,0,59.988,0,77.008c10.98,0,20.255,0,31.234,0c0-17.019,0-60.031,0-77.008
			C255.959,0,246.662,0,235.704,0z M89.476,73.449c12.036,12.036,42.494,42.494,54.509,54.488
			c7.765-7.744,14.345-14.345,22.132-22.045c-12.036-12.058-42.494-42.516-54.531-54.553
			C103.842,59.104,97.241,65.705,89.476,73.449z M336.569,105.869c7.744,7.701,14.345,14.301,22.11,22.045
			c12.036-12.058,42.451-42.473,54.488-54.488c-7.744-7.722-14.366-14.28-22.11-22.088
			C379.042,63.375,348.605,93.833,336.569,105.869z M387.519,197.524c0,11.023,0,20.298,0,31.299c16.998,0,60.053,0,77.051,0
			c0-11.001,0-20.277,0-31.299C447.572,197.524,404.517,197.524,387.519,197.524z M38.116,197.524
			c0,11.023-0.022,20.298-0.022,31.256c16.998,0.022,60.075,0.022,77.072,0.065c0-11.001,0-20.277,0-31.299
			C98.169,197.524,55.092,197.524,38.116,197.524z"/>
		<path style="fill:#010002;" d="M320.11,324.748H182.618c-24.548,0-44.695,22.585-44.695,50.195v127.721h226.903V374.943
			C364.805,347.333,344.701,324.748,320.11,324.748z"/>
		<path style="fill:#010002;" d="M251.278,302.595c43.055,0,77.763-34.729,77.763-77.612c0-42.926-34.707-77.676-77.763-77.676
			c-42.818,0-77.525,34.707-77.525,77.676C173.774,267.844,208.438,302.595,251.278,302.595z"/>
	</g>
	<g>
	</g>
	<g>
	</g>
	<g>
	</g>
	<g>
	</g>
	<g>
	</g>
	<g>
	</g>
	<g>
	</g>
	<g>
	</g>
	<g>
	</g>
	<g>
	</g>
	<g>
	</g>
	<g>
	</g>
	<g>
	</g>
	<g>
	</g>
	<g>
	</g>
</g>
</svg>